# Blender v2.78 (sub 0) OBJ File: 'Blender_Render_House.blend'
# www.blender.org
mtllib Blender_Render_House.mtl
o Plane.001
v -3.474418 10.387959 -4.375587
v 1.419034 10.387959 -4.375587
v -3.474418 8.357413 -8.827862
v 1.419034 8.357413 -8.827862
vn 0.0000 0.9098 -0.4150
usemtl Material.008
s off
f 1//1 2//1 4//1 3//1
o Plane
v -20.220873 0.170394 19.311304
v 9.736721 0.170394 19.311304
v -20.220873 0.170394 -10.646290
v 9.736721 0.170394 -10.646290
vn 0.0000 1.0000 0.0000
usemtl Material.001
s off
f 5//2 6//2 8//2 7//2
o Cube
v 2.564075 0.220104 -3.248422
v 2.564075 0.220104 2.221338
v -3.010840 0.220104 2.221338
v -3.010839 0.220104 -3.248423
v 2.564077 3.820696 -3.248420
v 2.564074 3.820696 2.221340
v -3.010841 3.820696 2.221338
v -3.010840 3.820696 -3.248422
v 3.852900 3.820696 -4.512933
v 3.852896 3.820696 3.485853
v -4.299663 3.820696 -4.512934
v -4.299664 3.820696 3.485850
v 3.852900 3.820696 -4.512933
v 3.852896 3.820696 3.485853
v -4.299663 3.820696 -4.512934
v -4.299664 3.820696 3.485850
v -0.223383 6.167410 -0.513541
v 2.564075 0.220104 -0.513542
v -0.223382 0.220104 -3.248422
v 2.564076 2.020400 -3.248421
v -0.223383 0.220104 2.221338
v 2.564075 2.020400 2.221339
v -3.010840 0.220104 -0.513542
v -3.010841 2.020400 2.221338
v -3.010840 2.020400 -3.248422
v 2.564075 3.820696 -0.513540
v -0.223382 3.820696 -3.248421
v -0.223384 3.820696 2.221339
v -3.010841 3.820696 -0.513542
v -0.223382 2.020400 -3.248422
v -3.010840 2.020400 -0.513542
v -0.223383 2.020400 2.221339
v 2.564075 2.020400 -0.513541
v -0.223382 0.220104 -0.513542
v 2.564075 0.220104 0.853898
v -1.617111 0.220104 -3.248422
v 2.564076 2.920548 -3.248421
v -1.617112 0.220104 2.221338
v 2.564074 2.920548 2.221340
v -3.010840 0.220104 -1.880982
v -3.010841 2.920548 2.221338
v -3.010840 2.920548 -3.248422
v 2.564074 3.820696 0.853900
v -1.617111 3.820696 -3.248421
v -1.617113 3.820696 2.221338
v -3.010841 3.820696 -1.880982
v 2.564075 0.220104 -1.880982
v 1.170347 0.220104 -3.248422
v 2.564076 1.120252 -3.248421
v 1.170346 0.220104 2.221338
v 2.564075 1.120252 2.221339
v -3.010840 0.220104 0.853898
v -3.010841 1.120252 2.221338
v -3.010840 1.120252 -3.248422
v 2.564076 3.820696 -1.880980
v 1.170347 3.820696 -3.248421
v 1.170345 3.820696 2.221339
v -3.010841 3.820696 0.853898
v -1.617111 2.020400 -3.248422
v 1.170347 2.020400 -3.248421
v -0.223382 2.920548 -3.248421
v -0.223382 1.120252 -3.248422
v -3.010840 2.020400 -1.880982
v -3.010841 2.020400 0.853898
v -3.010840 1.120252 -0.513542
v -3.010841 2.920548 -0.513542
v -1.617112 2.020400 2.221338
v -0.223383 1.120252 2.221338
v -0.223384 2.920548 2.221339
v 2.564075 2.020400 0.853899
v 1.170346 2.020400 1.945440
v 2.564075 1.120252 -0.513541
v 2.564075 2.920548 -0.513541
v -1.617111 0.220104 -0.513542
v 1.170346 0.220104 -0.513542
v -0.223382 0.220104 -1.880982
v -0.223382 0.220104 0.853898
v 1.170346 0.220104 0.853898
v 1.170347 0.220104 -1.880982
v -1.617111 0.220104 -1.880982
v 2.564076 2.920548 -1.880981
v 2.564075 1.120252 -1.880981
v 2.564075 1.120252 0.853899
v 1.170345 2.920548 2.221339
v 1.170346 1.120252 2.221339
v -1.617112 1.120252 2.221338
v -3.010841 2.920548 0.853898
v -3.010840 1.120252 0.853898
v -3.010840 1.120252 -1.880982
v 1.170347 1.120252 -3.248422
v 1.170347 2.920548 -3.248421
v -1.617111 2.920548 -3.248422
v -1.617111 1.120252 -3.248422
v -3.010840 2.920548 -1.880982
v -1.617112 2.920548 2.221338
v 2.564075 2.920548 0.853900
v -1.617111 0.220104 0.853898
v 2.564075 0.220104 1.537618
v -2.313975 0.220104 -3.248423
v 2.564076 3.370622 -3.248421
v -2.313976 0.220104 2.221338
v 2.564074 3.370622 2.221340
v -3.010839 0.220104 -2.564703
v -3.010841 3.370622 2.221338
v -3.010840 3.370622 -3.248422
v 2.564074 3.820696 1.537620
v -2.313976 3.820696 -3.248422
v -2.313977 3.820696 2.221338
v -3.010840 3.820696 -2.564702
v 2.564075 0.220104 -1.197262
v 0.473482 0.220104 -3.248422
v 2.564076 1.570326 -3.248421
v 0.473482 0.220104 2.221338
v 2.564075 1.570326 2.221339
v -3.010840 0.220104 0.170178
v -3.010841 1.570326 2.221338
v -3.010840 1.570326 -3.248422
v 2.564075 3.820696 -1.197260
v 0.473483 3.820696 -3.248421
v 0.473480 3.820696 2.221339
v -3.010841 3.820696 0.170178
v -2.313975 2.020400 -3.248422
v 0.473482 2.020400 -3.248422
v -0.223382 3.370622 -3.248421
v -0.223382 1.570326 -3.248422
v -3.010840 2.020400 -2.564702
v -3.010840 2.020400 0.170178
v -3.010840 0.670178 -0.513542
v -3.010840 2.470474 -0.513542
v -2.313977 2.020400 2.221338
v 0.473481 2.020400 2.221339
v -0.223383 0.670178 2.221338
v -0.223383 2.470474 2.221339
v 2.564075 2.020400 1.537619
v 2.564075 2.020400 -1.197261
v 2.564075 0.670178 -0.513541
v 2.564075 2.470474 -0.513541
v -2.313976 0.220104 -0.513542
v 0.473482 0.220104 -0.513542
v -0.223382 0.220104 -2.564702
v -0.223382 0.220104 0.170178
v 2.564075 0.220104 0.170178
v -0.920246 0.220104 -3.248422
v 2.564076 2.470474 -3.248421
v -0.920247 0.220104 2.221338
v 2.564074 2.470474 2.221340
v -3.010840 0.220104 -1.197262
v -3.010841 2.470474 2.221338
v -3.010840 2.470474 -3.248422
v 2.564075 3.820696 0.170180
v -0.920246 3.820696 -3.248421
v -0.920248 3.820696 2.221339
v -3.010841 3.820696 -1.197262
v 2.564075 0.220104 -2.564702
v 1.867211 0.220104 -3.248422
v 2.564075 0.670178 -3.248422
v 1.867211 0.220104 2.221338
v 2.564075 0.670178 2.221339
v -3.010840 0.220104 1.537618
v -3.010840 0.670178 2.221338
v -3.010839 0.670178 -3.248423
v 2.564076 3.820696 -2.564700
v 1.867212 3.820696 -3.248421
v 1.867209 3.820696 2.221340
v -3.010841 3.820696 1.537618
v -0.920247 2.020400 -3.248422
v 1.867211 2.020400 -3.248421
v -0.223382 2.470474 -3.248422
v -0.223382 0.670178 -3.248422
v -3.010840 2.020400 -1.197262
v -3.010841 2.020400 1.537618
v -3.010840 1.570326 -0.513542
v -3.010841 3.370622 -0.513542
v -0.920248 2.020400 2.221338
v 1.867210 2.020400 2.221339
v -0.223383 1.570326 2.221338
v -0.223384 3.370622 2.221339
v 1.867210 2.020400 1.945440
v 2.564076 2.020400 -2.564701
v 2.564075 1.570326 -0.513541
v 2.564075 3.370622 -0.513540
v -0.920247 0.220104 -0.513542
v 1.867211 0.220104 -0.513542
v -0.223382 0.220104 -1.197262
v -0.223383 0.220104 1.537618
v 0.473482 0.220104 0.853898
v 1.867211 0.220104 0.853898
v 1.170346 0.220104 0.170178
v 1.170346 0.220104 1.537618
v 0.473482 0.220104 -1.880982
v 1.867211 0.220104 -1.880982
v 1.170347 0.220104 -2.564702
v 1.170347 0.220104 -1.197262
v -2.313975 0.220104 -1.880982
v -0.920247 0.220104 -1.880982
v -1.617111 0.220104 -2.564702
v -1.617111 0.220104 -1.197262
v 2.564075 2.920548 -1.197261
v 2.564076 2.920548 -2.564701
v 2.564075 2.470474 -1.880981
v 2.564076 3.370622 -1.880980
v 2.564075 1.120252 -1.197261
v 2.564075 1.120252 -2.564702
v 2.564075 0.670178 -1.880981
v 2.564075 1.570326 -1.880981
v 2.564075 1.120252 1.537619
v 2.564075 1.120252 0.170179
v 2.564075 0.670178 0.853899
v 2.564075 1.570326 0.853899
v 0.473481 2.920548 2.221339
v 1.867210 2.920548 2.221340
v 1.170345 2.470474 2.221339
v 1.170345 3.370622 2.221339
v 0.473482 1.120252 2.221338
v 1.867210 1.120252 2.221339
v 1.170346 0.670178 2.221338
v 1.170346 1.570326 2.221339
v -2.313976 1.120252 2.221338
v -0.920247 1.120252 2.221338
v -1.617112 0.670178 2.221338
v -1.617112 1.570326 2.221338
v -3.010841 2.920548 0.170178
v -3.010841 2.920548 1.537618
v -3.010841 2.470474 0.853898
v -3.010841 3.370622 0.853898
v -3.010840 1.120252 0.170178
v -3.010840 1.120252 1.537618
v -3.010840 0.670178 0.853898
v -3.010840 1.570326 0.853898
v -3.010840 1.120252 -2.564702
v -3.010840 1.120252 -1.197262
v -3.010840 0.670178 -1.880982
v -3.010840 1.570326 -1.880982
v 0.473482 1.120252 -3.248422
v 1.867211 1.120252 -3.248422
v 1.170347 1.570326 -3.248422
v 1.170347 0.670178 -3.248422
v 0.473483 2.920548 -3.248421
v 1.867212 2.920548 -3.248421
v 1.170347 3.370622 -3.248421
v 1.170347 2.470474 -3.248421
v -2.313976 2.920548 -3.248422
v -0.920247 2.920548 -3.248422
v -1.617111 3.370622 -3.248422
v -1.617111 2.470474 -3.248422
v -2.313975 1.120252 -3.248422
v -0.920246 1.120252 -3.248422
v -1.617111 1.570326 -3.248422
v -1.617111 0.670178 -3.248422
v -3.010840 2.920548 -2.564702
v -3.010840 2.920548 -1.197262
v -3.010840 2.470474 -1.880982
v -3.010840 3.370622 -1.880982
v -2.313977 2.920548 2.221338
v -0.920248 2.920548 2.221339
v -1.617112 2.470474 2.221338
v -1.617113 3.370622 2.221338
v 2.564074 2.920548 1.537620
v 2.564075 2.920548 0.170180
v 2.564075 2.470474 0.853899
v 2.564075 3.370622 0.853900
v -2.313976 0.220104 0.853898
v -0.920247 0.220104 0.853898
v -1.617111 0.220104 0.170178
v -1.617112 0.220104 1.537618
v -0.920247 0.220104 1.537618
v -0.920247 0.220104 0.170178
v -2.313976 0.220104 0.170178
v 2.564075 3.370622 0.170180
v 2.564075 2.470474 0.170179
v 2.564075 2.470474 1.537619
v -0.920248 3.370622 2.221339
v -0.920248 2.470474 2.221339
v -2.313977 2.470474 2.221338
v -3.010841 3.370622 -1.197262
v -3.010840 2.470474 -1.197262
v -3.010840 2.470474 -2.564702
v -0.920246 0.670178 -3.248422
v -0.920247 1.570326 -3.248422
v -2.313975 1.570326 -3.248422
v -0.920246 2.470474 -3.248422
v -0.920246 3.370622 -3.248421
v -2.313976 3.370622 -3.248422
v 1.867211 2.470474 -3.248421
v 1.867212 3.370622 -3.248421
v 0.473483 3.370622 -3.248421
v 1.867211 0.670178 -3.248422
v 1.867211 1.570326 -3.248421
v 0.473482 1.570326 -3.248422
v -3.010840 1.570326 -1.197262
v -3.010840 0.670178 -1.197262
v -3.010840 0.670178 -2.564703
v -3.010841 1.570326 1.537618
v -3.010840 0.670178 1.537618
v -3.010840 0.670178 0.170178
v -3.010841 3.370622 1.537618
v -3.010841 2.470474 1.537618
v -3.010841 2.470474 0.170178
v -0.920248 1.570326 2.221338
v -0.920247 0.670178 2.221338
v -2.313976 0.670178 2.221338
v 1.867210 1.570326 2.221339
v 1.867211 0.670178 2.221338
v 0.473482 0.670178 2.221338
v 1.867209 3.370622 2.221340
v 1.867210 2.470474 2.221339
v 0.473481 2.470474 2.221339
v 2.564075 1.570326 0.170179
v 2.564075 0.670178 0.170179
v 2.564075 0.670178 1.537619
v 2.564076 1.570326 -2.564701
v 2.564075 0.670178 -2.564702
v 2.564075 0.670178 -1.197261
v 2.564076 3.370622 -2.564701
v 2.564076 2.470474 -2.564701
v 2.564075 2.470474 -1.197261
v -0.920247 0.220104 -1.197262
v -0.920246 0.220104 -2.564702
v -2.313975 0.220104 -2.564703
v 1.867211 0.220104 -1.197262
v 1.867211 0.220104 -2.564702
v 0.473482 0.220104 -2.564702
v 1.867211 0.220104 1.537618
v 1.867211 0.220104 0.170178
v 0.473482 0.220104 0.170178
v 0.473482 0.220104 1.537618
v 0.473482 0.220104 -1.197262
v -2.313975 0.220104 -1.197262
v 2.564075 3.370622 -1.197260
v 2.564075 1.570326 -1.197261
v 2.564075 1.570326 1.537619
v 0.473481 3.370622 2.221339
v 0.473481 1.570326 2.221339
v -2.313976 1.570326 2.221338
v -3.010841 3.370622 0.170178
v -3.010840 1.570326 0.170178
v -3.010840 1.570326 -2.564702
v 0.473482 0.670178 -3.248422
v 0.473483 2.470474 -3.248421
v -2.313975 2.470474 -3.248422
v -2.313975 0.670178 -3.248422
v -3.010840 3.370622 -2.564702
v -2.313977 3.370622 2.221338
v 2.564074 3.370622 1.537620
v -2.313976 0.220104 1.537618
v -0.920247 0.220104 2.221338
v -1.617112 0.220104 2.221338
v -0.920247 1.120252 2.221338
v -1.617112 1.120252 2.221338
v -1.617112 0.670178 2.221338
v -1.617112 1.570326 2.221338
v -0.920248 1.570326 2.221338
v -0.920247 0.670178 2.221338
v -0.920247 0.220104 1.985567
v -1.617112 0.220104 1.985567
v -0.920247 1.120252 1.985568
v -1.617112 1.120252 1.985568
v -1.617112 0.670178 1.985567
v -1.617112 1.570326 1.985568
v -0.920248 1.570326 1.985568
v -0.920247 0.670178 1.985568
v 2.366763 2.470474 -0.513541
v 2.366763 2.020400 -0.513541
v 2.366763 2.020400 0.170179
v 2.366763 2.020400 0.853899
v 2.366764 2.020400 -2.564701
v 2.366763 2.020400 -1.880981
v 2.366763 2.470474 -1.880981
v 2.366763 2.470474 0.853899
v 2.366763 2.020400 -1.197261
v 2.366763 1.570326 -0.513541
v 2.366763 1.570326 -1.880981
v 2.366763 1.570326 0.853899
v 2.366763 2.470474 0.170179
v 2.366763 1.570326 0.170179
v 2.366764 1.570326 -2.564701
v 2.366764 2.470474 -2.564701
v 2.366763 2.470474 -1.197261
v 2.366763 1.570326 -1.197261
v 1.170346 2.470474 1.945440
v 0.473481 2.020400 1.945440
v 1.170346 1.570326 1.945440
v 1.867210 1.570326 1.945440
v 1.867210 2.470474 1.945441
v 0.473481 2.470474 1.945440
v 0.473481 1.570326 1.945440
vn 0.0000 -1.0000 0.0000
vn 0.0000 0.0000 1.0000
vn 0.0000 1.0000 -0.0000
vn 1.0000 0.0000 0.0000
vn 0.0000 0.0000 -1.0000
vn -0.0000 0.8625 0.5061
vn 0.4989 0.8666 0.0000
vn -0.4989 0.8666 0.0000
vn 0.0000 0.8625 -0.5061
vn -1.0000 0.0000 0.0000
usemtl Material
s off
f 353//3 109//3 11//3 167//3
f 16//3 117//3 54//3 161//3 37//3 129//3 66//3 173//3 15//3 20//3 19//3
f 17//4 19//4 23//4 21//4
f 13//3 171//3 64//3 127//3 35//3 159//3 52//3 115//3 16//3 19//3 17//3
f 15//3 116//3 53//3 160//3 36//3 128//3 65//3 172//3 14//3 18//3 20//3
f 14//3 114//3 51//3 158//3 34//3 126//3 63//3 170//3 13//3 17//3 18//3
f 20//4 18//4 22//4 24//4
f 18//4 17//4 21//4 22//4
f 19//4 20//4 24//4 23//4
f 336//3 146//3 31//3 155//3
f 335//3 147//3 42//3 192//3
f 334//3 121//3 29//3 193//3
f 333//3 194//3 85//3 149//3
f 332//3 195//3 86//3 196//3
f 331//3 165//3 58//3 197//3
f 330//3 198//3 84//3 148//3
f 329//3 199//3 87//3 200//3
f 328//3 191//3 83//3 201//3
f 327//3 202//3 48//3 111//3
f 326//3 203//3 88//3 204//3
f 325//3 190//3 82//3 205//3
f 188//4 41//4 371//4 379//4
f 213//5 319//5 384//5 380//5
f 315//6 139//6 389//6 393//6
f 308//4 227//4 356//4 361//4
f 276//3 270//3 60//3 123//3
f 275//3 271//3 105//3 272//3
f 274//3 153//3 46//3 273//3
f 271//3 274//3 273//3 105//3
f 85//3 193//3 274//3 271//3
f 193//3 29//3 153//3 274//3
f 190//3 275//3 272//3 82//3
f 42//3 149//3 275//3 190//3
f 149//3 85//3 271//3 275//3
f 146//3 276//3 123//3 31//3
f 82//3 272//3 276//3 146//3
f 272//3 105//3 270//3 276//3
f 78//7 217//7 381//7 373//7
f 145//3 278//3 382//3 370//3
f 94//4 228//4 358//4 357//4
f 307//4 229//4 359//4 360//4
f 139//6 341//6 394//6 389//6
f 324//7 143//7 378//7 386//7
f 208//3 324//3 386//3 376//3
f 278//3 268//3 377//3 382//3
f 203//3 325//3 205//3 88//3
f 84//3 192//3 325//3 203//3
f 192//3 42//3 190//3 325//3
f 151//3 326//3 204//3 44//3
f 27//3 148//3 326//3 151//3
f 148//3 84//3 203//3 326//3
f 107//3 327//3 111//3 12//3
f 44//3 204//3 327//3 107//3
f 204//3 88//3 202//3 327//3
f 199//3 328//3 201//3 87//3
f 55//3 118//3 328//3 199//3
f 118//3 26//3 191//3 328//3
f 163//3 329//3 200//3 56//3
f 9//3 162//3 329//3 163//3
f 162//3 55//3 199//3 329//3
f 119//3 330//3 148//3 27//3
f 56//3 200//3 330//3 119//3
f 200//3 87//3 198//3 330//3
f 195//3 331//3 197//3 86//3
f 43//3 106//3 331//3 195//3
f 106//3 10//3 165//3 331//3
f 191//3 332//3 196//3 83//3
f 26//3 150//3 332//3 191//3
f 150//3 43//3 195//3 332//3
f 147//3 333//3 149//3 42//3
f 83//3 196//3 333//3 147//3
f 196//3 86//3 194//3 333//3
f 194//3 334//3 193//3 85//3
f 86//3 197//3 334//3 194//3
f 197//3 58//3 121//3 334//3
f 198//3 335//3 192//3 84//3
f 87//3 201//3 335//3 198//3
f 201//3 83//3 147//3 335//3
f 202//3 336//3 155//3 48//3
f 88//3 205//3 336//3 202//3
f 205//3 82//3 146//3 336//3
f 143//7 338//7 387//7 378//7
f 220//3 315//3 393//3 388//3
f 270//3 353//3 167//3 60//3
f 105//3 273//3 353//3 270//3
f 273//3 46//3 109//3 353//3
f 357//6 358//6 366//6 365//6
f 229//4 94//4 357//4 359//4
f 46//4 153//4 354//4 355//4
f 153//4 308//4 361//4 354//4
f 228//4 46//4 355//4 358//4
f 227//4 307//4 360//4 356//4
f 358//6 355//6 363//6 366//6
f 355//5 354//5 362//5 363//5
f 360//3 359//3 367//3 368//3
f 359//6 357//6 365//6 367//6
f 268//7 78//7 373//7 377//7
f 323//3 208//3 376//3 385//3
f 217//5 316//5 383//5 381//5
f 338//5 213//5 380//5 387//5
f 319//4 187//4 374//4 384//4
f 187//4 323//4 385//4 374//4
f 316//5 188//5 379//5 383//5
f 41//4 145//4 370//4 371//4
f 314//3 220//3 388//3 392//3
usemtl Material.004
f 24//8 22//8 25//8
f 22//9 21//9 25//9
f 23//10 24//10 25//10
f 21//11 23//11 25//11
f 369//4 364//4 365//4 366//4
f 364//4 368//4 367//4 365//4
f 362//4 369//4 366//4 363//4
usemtl Material.005
f 384//6 374//6 375//6 380//6
f 383//6 372//6 373//6 381//6
f 372//6 382//6 377//6 373//6
f 371//6 370//6 382//6 372//6
f 379//6 371//6 372//6 383//6
f 374//6 385//6 376//6 375//6
f 375//6 376//6 386//6 378//6
f 380//6 375//6 378//6 387//6
f 391//4 186//4 79//4 390//4
f 186//4 392//4 388//4 79//4
f 79//4 388//4 393//4 389//4
f 390//4 79//4 389//4 394//4
usemtl Material.007
f 352//6 114//6 14//6 110//6
f 351//4 116//4 15//4 112//4
f 350//12 117//12 16//12 113//12
f 349//7 107//7 12//7 169//7
f 348//7 130//7 33//7 157//7
f 347//7 131//7 38//7 176//7
f 346//7 119//7 27//7 177//7
f 345//12 134//12 33//12 125//12
f 344//12 135//12 39//12 180//12
f 343//12 129//12 37//12 181//12
f 342//4 138//4 32//4 124//4
f 341//4 139//4 40//4 184//4
f 340//4 128//4 36//4 185//4
f 339//6 142//6 30//6 122//6
f 338//6 143//6 41//6 188//6
f 337//6 126//6 34//6 189//6
f 324//6 206//6 81//6 145//6
f 323//6 207//6 89//6 208//6
f 322//6 170//6 63//6 209//6
f 321//6 210//6 80//6 144//6
f 320//6 211//6 90//6 212//6
f 318//6 214//6 59//6 166//6
f 317//6 215//6 91//6 216//6
f 315//4 218//4 77//4 141//4
f 314//4 219//4 92//4 220//4
f 313//4 172//4 65//4 221//4
f 312//4 222//4 76//4 140//4
f 311//4 223//4 93//4 224//4
f 309//4 226//4 61//4 168//4
f 307//4 182//4 75//4 229//4
f 306//12 230//12 74//12 137//12
f 305//12 231//12 95//12 232//12
f 304//12 173//12 66//12 233//12
f 303//12 234//12 73//12 136//12
f 302//12 235//12 96//12 236//12
f 301//12 179//12 72//12 237//12
f 300//12 238//12 62//12 169//12
f 299//12 239//12 97//12 240//12
f 298//12 178//12 71//12 241//12
f 297//7 242//7 70//7 133//7
f 296//7 243//7 98//7 244//7
f 295//7 163//7 56//7 245//7
f 294//7 246//7 69//7 132//7
f 293//7 247//7 99//7 248//7
f 292//7 175//7 68//7 249//7
f 291//7 250//7 50//7 113//7
f 290//7 251//7 100//7 252//7
f 289//7 174//7 67//7 253//7
f 288//7 254//7 62//7 125//7
f 287//7 255//7 101//7 256//7
f 286//7 151//7 44//7 257//7
f 285//12 258//12 50//12 157//12
f 284//12 259//12 102//12 260//12
f 283//12 161//12 54//12 261//12
f 282//4 262//4 49//4 156//4
f 281//4 263//4 103//4 264//4
f 280//4 160//4 53//4 265//4
f 279//6 266//6 47//6 154//6
f 278//6 267//6 104//6 268//6
f 277//6 158//6 51//6 269//6
f 267//6 277//6 269//6 104//6
f 81//6 189//6 277//6 267//6
f 189//6 34//6 158//6 277//6
f 145//6 81//6 267//6 278//6
f 142//6 279//6 154//6 30//6
f 78//6 268//6 279//6 142//6
f 268//6 104//6 266//6 279//6
f 263//4 280//4 265//4 103//4
f 77//4 185//4 280//4 263//4
f 185//4 36//4 160//4 280//4
f 182//4 281//4 264//4 75//4
f 40//4 141//4 281//4 182//4
f 141//4 77//4 263//4 281//4
f 138//4 282//4 156//4 32//4
f 75//4 264//4 282//4 138//4
f 264//4 103//4 262//4 282//4
f 259//12 283//12 261//12 102//12
f 74//12 181//12 283//12 259//12
f 181//12 37//12 161//12 283//12
f 178//12 284//12 260//12 71//12
f 39//12 137//12 284//12 178//12
f 137//12 74//12 259//12 284//12
f 134//12 285//12 157//12 33//12
f 71//12 260//12 285//12 134//12
f 260//12 102//12 258//12 285//12
f 255//7 286//7 257//7 101//7
f 70//7 177//7 286//7 255//7
f 177//7 27//7 151//7 286//7
f 174//7 287//7 256//7 67//7
f 38//7 133//7 287//7 174//7
f 133//7 70//7 255//7 287//7
f 130//7 288//7 125//7 33//7
f 67//7 256//7 288//7 130//7
f 256//7 101//7 254//7 288//7
f 251//7 289//7 253//7 100//7
f 69//7 176//7 289//7 251//7
f 176//7 38//7 174//7 289//7
f 159//7 290//7 252//7 52//7
f 35//7 132//7 290//7 159//7
f 132//7 69//7 251//7 290//7
f 115//7 291//7 113//7 16//7
f 52//7 252//7 291//7 115//7
f 252//7 100//7 250//7 291//7
f 247//7 292//7 249//7 99//7
f 45//7 152//7 292//7 247//7
f 152//7 28//7 175//7 292//7
f 171//7 293//7 248//7 64//7
f 13//7 108//7 293//7 171//7
f 108//7 45//7 247//7 293//7
f 127//7 294//7 132//7 35//7
f 64//7 248//7 294//7 127//7
f 248//7 99//7 246//7 294//7
f 243//7 295//7 245//7 98//7
f 57//7 164//7 295//7 243//7
f 164//7 9//7 163//7 295//7
f 175//7 296//7 244//7 68//7
f 28//7 120//7 296//7 175//7
f 120//7 57//7 243//7 296//7
f 131//7 297//7 133//7 38//7
f 68//7 244//7 297//7 131//7
f 244//7 98//7 242//7 297//7
f 239//12 298//12 241//12 97//12
f 73//12 180//12 298//12 239//12
f 180//12 39//12 178//12 298//12
f 155//12 299//12 240//12 48//12
f 31//12 136//12 299//12 155//12
f 136//12 73//12 239//12 299//12
f 111//12 300//12 169//12 12//12
f 48//12 240//12 300//12 111//12
f 240//12 97//12 238//12 300//12
f 235//12 301//12 237//12 96//12
f 61//12 124//12 301//12 235//12
f 124//12 32//12 179//12 301//12
f 167//12 302//12 236//12 60//12
f 11//12 168//12 302//12 167//12
f 168//12 61//12 235//12 302//12
f 123//12 303//12 136//12 31//12
f 60//12 236//12 303//12 123//12
f 236//12 96//12 234//12 303//12
f 231//12 304//12 233//12 95//12
f 49//12 112//12 304//12 231//12
f 112//12 15//12 173//12 304//12
f 179//12 305//12 232//12 72//12
f 32//12 156//12 305//12 179//12
f 156//12 49//12 231//12 305//12
f 135//12 306//12 137//12 39//12
f 72//12 232//12 306//12 135//12
f 232//12 95//12 230//12 306//12
f 76//4 184//4 307//4 227//4
f 184//4 40//4 182//4 307//4
f 29//4 140//4 308//4 153//4
f 140//4 76//4 227//4 308//4
f 109//4 309//4 168//4 11//4
f 46//4 228//4 309//4 109//4
f 228//4 94//4 226//4 309//4
f 223//4 310//4 225//4 93//4
f 59//4 122//4 310//4 223//4
f 122//4 30//4 183//4 310//4
f 165//4 311//4 224//4 58//4
f 10//4 166//4 311//4 165//4
f 166//4 59//4 223//4 311//4
f 121//4 312//4 140//4 29//4
f 58//4 224//4 312//4 121//4
f 224//4 93//4 222//4 312//4
f 219//4 313//4 221//4 92//4
f 47//4 110//4 313//4 219//4
f 110//4 14//4 172//4 313//4
f 341//5 225//5 390//5 394//5
f 30//4 154//4 314//4 183//4
f 154//4 47//4 219//4 314//4
f 139//4 315//4 141//4 40//4
f 220//4 92//4 218//4 315//4
f 215//6 316//6 217//6 91//6
f 80//6 188//6 316//6 215//6
f 150//6 317//6 216//6 43//6
f 26//6 144//6 317//6 150//6
f 144//6 80//6 215//6 317//6
f 106//6 318//6 166//6 10//6
f 43//6 216//6 318//6 106//6
f 216//6 91//6 214//6 318//6
f 211//6 319//6 213//6 90//6
f 57//6 120//6 319//6 211//6
f 120//6 28//6 187//6 319//6
f 162//6 320//6 212//6 55//6
f 9//6 164//6 320//6 162//6
f 164//6 57//6 211//6 320//6
f 118//6 321//6 144//6 26//6
f 55//6 212//6 321//6 118//6
f 212//6 90//6 210//6 321//6
f 207//6 322//6 209//6 89//6
f 45//6 108//6 322//6 207//6
f 108//6 13//6 170//6 322//6
f 28//6 152//6 323//6 187//6
f 152//6 45//6 207//6 323//6
f 143//6 324//6 145//6 41//6
f 208//6 89//6 206//6 324//6
f 206//6 337//6 189//6 81//6
f 89//6 209//6 337//6 206//6
f 209//6 63//6 126//6 337//6
f 210//6 338//6 188//6 80//6
f 90//6 213//6 338//6 210//6
f 214//6 339//6 122//6 59//6
f 91//6 217//6 339//6 214//6
f 217//6 78//6 142//6 339//6
f 218//4 340//4 185//4 77//4
f 92//4 221//4 340//4 218//4
f 221//4 65//4 128//4 340//4
f 222//4 341//4 184//4 76//4
f 93//4 225//4 341//4 222//4
f 226//4 342//4 124//4 61//4
f 94//4 229//4 342//4 226//4
f 229//4 75//4 138//4 342//4
f 230//12 343//12 181//12 74//12
f 95//12 233//12 343//12 230//12
f 233//12 66//12 129//12 343//12
f 234//12 344//12 180//12 73//12
f 96//12 237//12 344//12 234//12
f 237//12 72//12 135//12 344//12
f 238//12 345//12 125//12 62//12
f 97//12 241//12 345//12 238//12
f 241//12 71//12 134//12 345//12
f 242//7 346//7 177//7 70//7
f 98//7 245//7 346//7 242//7
f 245//7 56//7 119//7 346//7
f 246//7 347//7 176//7 69//7
f 99//7 249//7 347//7 246//7
f 249//7 68//7 131//7 347//7
f 250//7 348//7 157//7 50//7
f 100//7 253//7 348//7 250//7
f 253//7 67//7 130//7 348//7
f 254//7 349//7 169//7 62//7
f 101//7 257//7 349//7 254//7
f 257//7 44//7 107//7 349//7
f 258//12 350//12 113//12 50//12
f 102//12 261//12 350//12 258//12
f 261//12 54//12 117//12 350//12
f 262//4 351//4 112//4 49//4
f 103//4 265//4 351//4 262//4
f 265//4 53//4 116//4 351//4
f 266//6 352//6 110//6 47//6
f 104//6 269//6 352//6 266//6
f 269//6 51//6 114//6 352//6
f 356//12 360//12 368//12 364//12
f 354//12 361//12 369//12 362//12
f 361//12 356//12 364//12 369//12
f 225//5 310//5 391//5 390//5
f 183//12 314//12 392//12 186//12
f 310//12 183//12 186//12 391//12
